<?xml version="1.0" encoding="UTF-8" standalone="no"?>
<svg
   width="145.67999"
   height="121.53095"
   viewBox="0 0 145.67999 121.53095"
   version="1.1"
   id="svg11"
   sodipodi:docname="favicon.svg"
   inkscape:version="1.4 (e7c3feb1, 2024-10-09)"
   xmlns:inkscape="http://www.inkscape.org/namespaces/inkscape"
   xmlns:sodipodi="http://sodipodi.sourceforge.net/DTD/sodipodi-0.dtd"
   xmlns="http://www.w3.org/2000/svg"
   xmlns:svg="http://www.w3.org/2000/svg">
  <defs
     id="defs11" />
  <sodipodi:namedview
     id="namedview11"
     pagecolor="#ffffff"
     bordercolor="#000000"
     borderopacity="0.25"
     inkscape:showpageshadow="2"
     inkscape:pageopacity="0.0"
     inkscape:pagecheckerboard="0"
     inkscape:deskcolor="#d1d1d1"
     inkscape:zoom="7.2487646"
     inkscape:cx="72.839998"
     inkscape:cy="60.768975"
     inkscape:window-width="2488"
     inkscape:window-height="1314"
     inkscape:window-x="0"
     inkscape:window-y="30"
     inkscape:window-maximized="0"
     inkscape:current-layer="svg11">
    <inkscape:page
       x="0"
       y="0"
       width="145.67999"
       height="121.53095"
       id="page2"
       margin="0"
       bleed="0" />
  </sodipodi:namedview>
  <!-- SVG created with Arrow, by QuiverAI (https://quiver.ai) -->
  <path
     d="m 133.54,85.029999 v -73.87 C 133.54,4.6199992 128.71,-7.6626527e-7 122.64,-7.6626527e-7 H 23.699999 c -6.57,0 -11.6,5.01999996626527 -11.6,11.15999976626527 v 73.87 L -7.8709483e-7,104.66 v 2.36 C -7.8709483e-7,112.57 4.6299993,117 10.389999,117 H 135.29 c 5.76,0 10.39,-4.43 10.39,-9.98 v -2.36 l -12.1,-19.630001 z"
     fill="#00141a"
     id="path3"
     style="stroke-width:6;stroke-dasharray:none" />
  <path
     d="m 142.58925,111.3403 -1.82068,4.37433 q -1.15679,2.76643 -4.17449,2.76643 H 9.4684016 q -3.0177007,0 -4.3052531,-2.70649 L 3.050758,111.3403 H 142.56913 Z"
     fill="#e6f0f0"
     id="path4"
     style="stroke:#000000;stroke-width:4.03323;stroke-linecap:round;stroke-linejoin:round;stroke-dasharray:none;stroke-opacity:1" />
  <path
     d="m 128.74,85.029999 v -73.47 c 0,-3.5599998 -2.41,-5.9399998 -6.07,-5.9399998 H 23.729999 c -3.66,0 -6.07,2.38 -6.07,5.9399998 v 73.47 H 128.76 Z"
     fill="#28b6ff"
     id="path5"
     style="stroke-width:6;stroke-dasharray:none" />
  <path
     d="m 122.24,74.629999 v -62.28 H 24.499999 v 62.28 z"
     fill="#31b6ff"
     id="path6"
     style="stroke-width:6;stroke-dasharray:none" />
  <path
     d="M 139.64,104.73 130.06,87.089999 H 16.459999 L 7.6799993,104.73 v 1.57 c 0,2.37 1.6,3.95 3.9399997,3.95 H 135.72 c 2.34,0 3.94,-1.58 3.94,-3.95 v -1.57 z"
     fill="#f9fffe"
     id="path7"
     style="stroke-width:6;stroke-dasharray:none" />
  <path
     d="m 132.44,104.33 -6.62,-9.980001 H 21.719999 l -4.43,9.980001 H 132.39 Z"
     fill="#e6f0f0"
     id="path8"
     style="stroke-width:6;stroke-dasharray:none" />
  <path
     d="m 91.539999,101.13 h -35.94 v 3.16 h 35.94 z"
     fill="#002c4a"
     id="path9"
     style="stroke-width:6;stroke-dasharray:none" />
  <path
     d="m 68.739999,53.729999 c 0,-7.76 -6.2,-9.77 -11.17,-10.76 -6.09,-1.26 -8.59,-2.41 -8.59,-4.96 0,-1.66 3.01,-4.42 6.62,-4.42 3.21,0 6.42,2.2 8.42,4.4 l 5.41,-4.88 c -3.81,-3.69 -7.62,-7.98 -13.83,-7.98 -6.62,0 -14.44,6.41 -14.44,12.03 0,7.62 6.82,10.39 12.43,11.57 5.62,1.18 8.02,1.78 8.02,4.94 0,1.74 -2.8,3.94 -6.41,3.94 -3.61,0 -7.22,-3.16 -9.63,-5.35 l -5.21,4.88 c 4.41,3.89 8.02,8.58 14.84,8.58 7.21,0 13.54,-6.41 13.54,-11.99 z"
     fill="#00141a"
     id="path10"
     style="stroke-width:6;stroke-dasharray:none" />
  <path
     d="m 91.539999,44.369999 v 6.41 H 100.16 v 1.18 c -2.000001,4.33 -5.610001,7.28 -8.620001,7.28 -6.62,0 -11.03,-7.35 -11.03,-13.77 0,-6.02 5.21,-12.66 11.03,-12.66 4.01,0 7.02,2.76 9.420001,6.33 l 6.42,-3.97 c -4.01,-5.62 -8.820001,-10.01 -15.840001,-10.01 -10.22,0 -18.24,9.98 -18.24,20.31 0,9.91 7.61,20.28 17.64,20.28 4.41,0 7.62,-2.39 10.020001,-5.15 l 2.01,3.56 h 4.01 v -19.79 z"
     fill="#00141a"
     id="path11"
     style="stroke-width:6;stroke-dasharray:none" />
</svg>
